# xmcd
#
# Track frame offsets: 
#        150
#        17587
#        29155
#        44476
#        55838
#        73228
#        82753
#        99705
#
# Disc length: 1472 seconds
#
# Revision: 1
# Processed by: cddbd v1.5.2PL0 Copyright (c) Steve Scherf et al.
# Submitted via: ExactAudioCopy v1.0b3
#
DISCID=6805be08
DTITLE=Joe Summers - European Tour Sampler
DYEAR=2013
DGENRE=Folk
TTITLE0=This Holy Fire
TTITLE1=Harlem
TTITLE2=Turn the Boat Around
TTITLE3=Lake Over the Hillside
TTITLE4=Neil Young Song
TTITLE5=Catherine
TTITLE6=Monte Carlo
TTITLE7=What Would the Neighbours Think
EXTD=YEAR: 2013
EXTT0=
EXTT1=
EXTT2=
EXTT3=
EXTT4=
EXTT5=
EXTT6=
EXTT7=
PLAYORDER=
